HIERARCHY
ROOT Hips
{
  OFFSET 5.72205e-005 65.662 3.42586
  CHANNELS 6 Xposition Yposition Zposition Zrotation Xrotation Yrotation
  JOINT Chest
  {
    OFFSET 0 8.7983 -4.7612
    CHANNELS 6 Xposition Yposition Zposition Zrotation Xrotation Yrotation
    JOINT Chest2
    {
      OFFSET 0 8.0291 0.4195
      CHANNELS 6 Xposition Yposition Zposition Zrotation Xrotation Yrotation
      JOINT Chest3
      {
        OFFSET 0 9.9351 -2.2114
        CHANNELS 6 Xposition Yposition Zposition Zrotation Xrotation Yrotation
        JOINT Neck
        {
          OFFSET 0 22.3885 -0.4656
          CHANNELS 6 Xposition Yposition Zposition Zrotation Xrotation Yrotation
          JOINT Head
          {
            OFFSET -0.0001 12.643 3.4389
            CHANNELS 6 Xposition Yposition Zposition Zrotation Xrotation Yrotation
            End Site
            {
              OFFSET 0.0001 17.6655 0.5274
            }
          }
        }
        JOINT LeftCollar
        {
          OFFSET 2.2603 21.606 7.4023
          CHANNELS 6 Xposition Yposition Zposition Zrotation Xrotation Yrotation
          JOINT LeftShoulder
          {
            OFFSET 13.5163 -1.1332 -5.0146
            CHANNELS 6 Xposition Yposition Zposition Zrotation Xrotation Yrotation
            JOINT LeftElbow
            {
              OFFSET -0.0995 -28.05 -0.2431
              CHANNELS 6 Xposition Yposition Zposition Zrotation Xrotation Yrotation
              JOINT LeftWrist
              {
                OFFSET 0.0679 -23.3996 -0.1402
                CHANNELS 6 Xposition Yposition Zposition Zrotation Xrotation Yrotation
                JOINT LeftFinger1
                {
                  OFFSET 0.7932 -9.069 2.5189
                  CHANNELS 6 Xposition Yposition Zposition Zrotation Xrotation Yrotation
                  JOINT LeftFinger11
                  {
                    OFFSET -0.8272 -3.3923 0.5977
                    CHANNELS 6 Xposition Yposition Zposition Zrotation Xrotation Yrotation
                    JOINT LeftFinger12
                    {
                      OFFSET -0.5649 -2.3158 0.4082
                      CHANNELS 6 Xposition Yposition Zposition Zrotation Xrotation Yrotation
                      End Site
                      {
                        OFFSET -0.4919 -1.6479 0.2673
                      }
                    }
                  }
                }
                JOINT LeftFinger2
                {
                  OFFSET 0.9159 -9.2044 0.2193
                  CHANNELS 6 Xposition Yposition Zposition Zrotation Xrotation Yrotation
                  JOINT LeftFinger21
                  {
                    OFFSET 0.0117 -4.1944 -0.0248
                    CHANNELS 6 Xposition Yposition Zposition Zrotation Xrotation Yrotation
                    JOINT LeftFinger22
                    {
                      OFFSET 0.0071 -2.3249 -0.0142
                      CHANNELS 6 Xposition Yposition Zposition Zrotation Xrotation Yrotation
                      End Site
                      {
                        OFFSET -0.1475 -2.0882 0.0028
                      }
                    }
                  }
                }
                JOINT LeftFinger3
                {
                  OFFSET 0.6113 -8.7231 -2.0637
                  CHANNELS 6 Xposition Yposition Zposition Zrotation Xrotation Yrotation
                  JOINT LeftFinger31
                  {
                    OFFSET -0.1927 -3.8059 -0.2383
                    CHANNELS 6 Xposition Yposition Zposition Zrotation Xrotation Yrotation
                    JOINT LeftFinger32
                    {
                      OFFSET -0.1091 -2.1688 -0.1362
                      CHANNELS 6 Xposition Yposition Zposition Zrotation Xrotation Yrotation
                      End Site
                      {
                        OFFSET -0.2358 -1.9176 -0.0906
                      }
                    }
                  }
                }
                JOINT LeftFinger4
                {
                  OFFSET -0.6151 -8.0947 -3.5641
                  CHANNELS 6 Xposition Yposition Zposition Zrotation Xrotation Yrotation
                  JOINT LeftFinger41
                  {
                    OFFSET -0.4882 -2.341 -0.6462
                    CHANNELS 6 Xposition Yposition Zposition Zrotation Xrotation Yrotation
                    JOINT LeftFinger42
                    {
                      OFFSET -0.3575 -1.7167 -0.4742
                      CHANNELS 6 Xposition Yposition Zposition Zrotation Xrotation Yrotation
                      End Site
                      {
                        OFFSET -0.4187 -1.5237 -0.3496
                      }
                    }
                  }
                }
                JOINT LeftFinger0
                {
                  OFFSET -1.42 -1.8761 1.4223
                  CHANNELS 6 Xposition Yposition Zposition Zrotation Xrotation Yrotation
                  JOINT LeftFinger01
                  {
                    OFFSET -1.1471 -3.4929 2.6334
                    CHANNELS 6 Xposition Yposition Zposition Zrotation Xrotation Yrotation
                    JOINT LeftFinger02
                    {
                      OFFSET -0.823 -2.3 1.6571
                      CHANNELS 6 Xposition Yposition Zposition Zrotation Xrotation Yrotation
                      End Site
                      {
                        OFFSET -0.5822 -1.6914 1.1582
                      }
                    }
                  }
                }
              }
            }
          }
        }
        JOINT RightCollar
        {
          OFFSET -2.2603 21.606 7.4023
          CHANNELS 6 Xposition Yposition Zposition Zrotation Xrotation Yrotation
          JOINT RightShoulder
          {
            OFFSET -13.5187 -1.1334 -5.0155
            CHANNELS 6 Xposition Yposition Zposition Zrotation Xrotation Yrotation
            JOINT RightElbow
            {
              OFFSET 0.0994 -28.0499 -0.2431
              CHANNELS 6 Xposition Yposition Zposition Zrotation Xrotation Yrotation
              JOINT RightWrist
              {
                OFFSET -0.0679 -23.3996 -0.1402
                CHANNELS 6 Xposition Yposition Zposition Zrotation Xrotation Yrotation
                JOINT RightFinger1
                {
                  OFFSET -0.7932 -9.0691 2.5189
                  CHANNELS 6 Xposition Yposition Zposition Zrotation Xrotation Yrotation
                  JOINT RightFinger11
                  {
                    OFFSET 0.8272 -3.3923 0.5977
                    CHANNELS 6 Xposition Yposition Zposition Zrotation Xrotation Yrotation
                    JOINT RightFinger12
                    {
                      OFFSET 0.565 -2.3158 0.4082
                      CHANNELS 6 Xposition Yposition Zposition Zrotation Xrotation Yrotation
                      End Site
                      {
                        OFFSET 0.4919 -1.6479 0.2673
                      }
                    }
                  }
                }
                JOINT RightFinger2
                {
                  OFFSET -0.916 -9.2044 0.2193
                  CHANNELS 6 Xposition Yposition Zposition Zrotation Xrotation Yrotation
                  JOINT RightFinger21
                  {
                    OFFSET -0.0117 -4.1944 -0.0248
                    CHANNELS 6 Xposition Yposition Zposition Zrotation Xrotation Yrotation
                    JOINT RightFinger22
                    {
                      OFFSET -0.0071 -2.3249 -0.0142
                      CHANNELS 6 Xposition Yposition Zposition Zrotation Xrotation Yrotation
                      End Site
                      {
                        OFFSET 0.1475 -2.0882 0.0028
                      }
                    }
                  }
                }
                JOINT RightFinger3
                {
                  OFFSET -0.6113 -8.7231 -2.0637
                  CHANNELS 6 Xposition Yposition Zposition Zrotation Xrotation Yrotation
                  JOINT RightFinger31
                  {
                    OFFSET 0.1927 -3.8059 -0.2383
                    CHANNELS 6 Xposition Yposition Zposition Zrotation Xrotation Yrotation
                    JOINT RightFinger32
                    {
                      OFFSET 0.1091 -2.1688 -0.1362
                      CHANNELS 6 Xposition Yposition Zposition Zrotation Xrotation Yrotation
                      End Site
                      {
                        OFFSET 0.2358 -1.9176 -0.0906
                      }
                    }
                  }
                }
                JOINT RightFinger4
                {
                  OFFSET 0.6151 -8.0947 -3.564
                  CHANNELS 6 Xposition Yposition Zposition Zrotation Xrotation Yrotation
                  JOINT RightFinger41
                  {
                    OFFSET 0.4882 -2.341 -0.6462
                    CHANNELS 6 Xposition Yposition Zposition Zrotation Xrotation Yrotation
                    JOINT RightFinger42
                    {
                      OFFSET 0.3574 -1.7166 -0.4742
                      CHANNELS 6 Xposition Yposition Zposition Zrotation Xrotation Yrotation
                      End Site
                      {
                        OFFSET 0.4187 -1.5237 -0.3496
                      }
                    }
                  }
                }
                JOINT RightFinger0
                {
                  OFFSET 1.4199 -1.8761 1.4221
                  CHANNELS 6 Xposition Yposition Zposition Zrotation Xrotation Yrotation
                  JOINT RightFinger01
                  {
                    OFFSET 1.1472 -3.4929 2.6336
                    CHANNELS 6 Xposition Yposition Zposition Zrotation Xrotation Yrotation
                    JOINT RightFinger02
                    {
                      OFFSET 0.8229 -2.3 1.6571
                      CHANNELS 6 Xposition Yposition Zposition Zrotation Xrotation Yrotation
                      End Site
                      {
                        OFFSET 0.5822 -1.6914 1.1582
                      }
                    }
                  }
                }
              }
            }
          }
        }
      }
    }
  }
  JOINT RightHip
  {
    OFFSET -9.412 3.9771 -0.7758
    CHANNELS 6 Xposition Yposition Zposition Zrotation Xrotation Yrotation
    JOINT RightKnee
    {
      OFFSET -0.7531 -40.938 0
      CHANNELS 6 Xposition Yposition Zposition Zrotation Xrotation Yrotation
      JOINT RightAnkle
      {
        OFFSET 0 -40.1986 0
        CHANNELS 6 Xposition Yposition Zposition Zrotation Xrotation Yrotation
        JOINT RightToe
        {
          OFFSET 0 -4.4182 9.239
          CHANNELS 6 Xposition Yposition Zposition Zrotation Xrotation Yrotation
          End Site
          {
            OFFSET 0 0 6.1981
          }
        }
      }
    }
  }
  JOINT LeftHip
  {
    OFFSET 9.4119 3.9773 -0.7758
    CHANNELS 6 Xposition Yposition Zposition Zrotation Xrotation Yrotation
    JOINT LeftKnee
    {
      OFFSET 0.7532 -40.9383 0
      CHANNELS 6 Xposition Yposition Zposition Zrotation Xrotation Yrotation
      JOINT LeftAnkle
      {
        OFFSET 0 -40.1986 0
        CHANNELS 6 Xposition Yposition Zposition Zrotation Xrotation Yrotation
        JOINT LeftToe
        {
          OFFSET 0 -4.4182 9.239
          CHANNELS 6 Xposition Yposition Zposition Zrotation Xrotation Yrotation
          End Site
          {
            OFFSET 0 0 6.1981
          }
        }
      }
    }
  }
}
MOTION
Frames:	4
Frame Time:	0.0333333
5.72205e-005 65.662 3.42586 0 0 -0 0 8.7983 -4.7612 0 0 -0 0 8.0291 0.4195 0 0 -0 0 9.9351 -2.2114 0 0 -0 0 22.3885 -0.4656 0 0 -0 -0.0001 12.643 3.4389 0 0 -0 2.2603 21.606 7.4023 0 0 -12.5014 13.5163 -1.1332 -5.0146 88.1196 14.2451 10.6914 -0.0995 -28.05 -0.2431 -0.00160068 -0.00239207 0.000740045 0.0679 -23.3996 -0.1402 -8.4365e-005 7.00714e-005 -9.52055e-007 0.7932 -9.069 2.5189 9.93923e-017 -1.98785e-016 -1.59028e-015 -0.8272 -3.3923 0.5977 9.93923e-017 -5.96354e-016 -1.59028e-015 -0.5649 -2.3158 0.4082 -9.93923e-017 -5.96354e-016 -1.59028e-015 0.9159 -9.2044 0.2193 9.93923e-017 -1.98785e-016 -1.59028e-015 0.0117 -4.1944 -0.0248 -0.0128176 0.00232552 8.52707e-005 0.0071 -2.3249 -0.0142 9.93923e-017 5.96354e-016 -0 0.6113 -8.7231 -2.0637 9.93923e-017 -1.98785e-016 -1.59028e-015 -0.1927 -3.8059 -0.2383 -0.0160551 0.00299681 0.000857156 -0.1091 -2.1688 -0.1362 -2.48481e-016 0 3.18055e-015 -0.6151 -8.0947 -3.5641 9.93923e-017 -1.98785e-016 -1.59028e-015 -0.4882 -2.341 -0.6462 -0.0125865 0.0031206 0.00282719 -0.3575 -1.7167 -0.4742 0 1.98785e-016 -0 -1.42 -1.8761 1.4223 9.93923e-017 -1.98785e-016 -1.59028e-015 -1.1471 -3.4929 2.6334 9.93923e-017 -5.96354e-016 -1.59028e-015 -0.823 -2.3 1.6571 -9.93923e-017 -5.96354e-016 -1.59028e-015 -2.2603 21.606 7.4023 -0.865644 0.16582 7.03859 -13.5187 -1.1334 -5.0155 -88.0329 10.2057 -10.5567 0.0994 -28.0499 -0.2431 0.0015593 -0.00248883 -0.000788628 -0.0679 -23.3996 -0.1402 7.87605e-005 4.10553e-005 1.24965e-005 -0.7932 -9.0691 2.5189 -3.97569e-016 -7.95139e-016 3.18055e-015 0.8272 -3.3923 0.5977 -1.98785e-016 -3.97569e-016 3.18055e-015 0.565 -2.3158 0.4082 -1.98785e-016 0 3.18055e-015 -0.916 -9.2044 0.2193 -3.97569e-016 -7.95139e-016 3.18055e-015 -0.0117 -4.1944 -0.0248 0.0129473 0.00231697 -8.70038e-005 -0.0071 -2.3249 -0.0142 9.93923e-017 -7.95139e-016 1.59028e-015 -0.6113 -8.7231 -2.0637 -3.97569e-016 -7.95139e-016 3.18055e-015 0.1927 -3.8059 -0.2383 0.0163314 0.00303369 -0.000872333 0.1091 -2.1688 -0.1362 3.97569e-016 7.95139e-016 -3.18055e-015 0.6151 -8.0947 -3.564 -3.97569e-016 -7.95139e-016 3.18055e-015 0.4882 -2.341 -0.6462 0.0145763 0.00367772 -0.00326275 0.3574 -1.7166 -0.4742 9.93923e-017 -3.97569e-016 -0 1.4199 -1.8761 1.4221 -3.97569e-016 -7.95139e-016 3.18055e-015 1.1472 -3.4929 2.6336 -1.98785e-016 -3.97569e-016 3.18055e-015 0.8229 -2.3 1.6571 -1.98785e-016 0 3.18055e-015 -9.412 3.9771 -0.7758 3.42482 1.32465 -0.0626183 -0.7531 -40.938 0 0.000117508 0.717283 0.000978199 0 -40.1986 0 -3.4257 -2.04197 -0.0604716 8.88178e-016 -4.4182 9.239 6.47761e-025 0 -0 9.4119 3.9773 -0.7758 -3.42483 1.34017 0.0627307 0.7532 -40.9383 -2.22045e-016 -0.000193936 0.682302 -0.0013703 -8.88179e-016 -40.1986 0 3.42574 -2.02253 0.0595886 -8.88178e-016 -4.4182 9.239 -8.45714e-024 0 -7.40531e-025 
1.39191 64.5366 66.8888 -8.00276e-015 -7.99931 180 0 8.7983 -4.7612 -0.18476 4.4024 -0.372962 0 8.0291 0.4195 -0.342199 8.80591 -0.734905 4.44089e-016 9.9351 -2.2114 -0.342199 8.80593 -0.734906 0 22.3885 -0.4656 0.11715 0.173142 -0.00018054 -0.0001 12.643 3.4389 -1.12962e-006 0.117168 4.5459e-007 2.2603 21.606 7.4023 -5.61498 3.28762 -32.5986 13.5163 -1.1332 -5.0146 29.6363 -8.21509 22.9718 -0.0995 -28.05 -0.2431 -41.5938 -43.7906 -31.8127 0.0679 -23.3996 -0.1402 6.51413 -0.858815 -3.13479 0.7932 -9.069 2.5189 -4.81723e-006 5.0937e-006 7.74985e-006 -0.8272 -3.3923 0.5977 -5.29669e-031 9.54166e-015 3.18055e-015 -0.5649 -2.3158 0.4082 -1.4428e-006 3.49269e-006 -1.30796e-006 0.9159 -9.2044 0.2193 -4.81723e-006 5.0937e-006 7.74985e-006 0.0117 -4.1944 -0.0248 -0.0128439 0.00232889 8.16154e-005 0.0071 -2.3249 -0.0142 -1.76556e-031 3.18055e-015 3.18055e-015 0.6113 -8.7231 -2.0637 -4.81723e-006 5.0937e-006 7.74985e-006 -0.1927 -3.8059 -0.2383 -0.0160237 0.00298978 0.000853539 -0.1091 -2.1688 -0.1362 3.53113e-031 -6.36111e-015 3.18055e-015 -0.6151 -8.0947 -3.5641 -4.81723e-006 5.0937e-006 7.74985e-006 -0.4882 -2.341 -0.6462 -0.01263 0.00313672 0.0028369 -0.3575 -1.7167 -0.4742 9.1899e-007 4.67221e-006 -4.46081e-006 -1.42 -1.8761 1.4223 -4.81723e-006 5.0937e-006 7.74985e-006 -1.1471 -3.4929 2.6334 -5.29669e-031 9.54166e-015 3.18055e-015 -0.823 -2.3 1.6571 -1.4428e-006 3.49269e-006 -1.30796e-006 -2.2603 21.606 7.4023 6.89185 3.3732 29.2188 -13.5187 -1.1334 -5.0155 -28.334 -9.56476 -18.1525 0.0994 -28.0499 -0.2431 41.6358 -44.3543 31.7769 -0.0679 -23.3996 -0.1402 -9.46951 0.411105 3.6369 -0.7932 -9.0691 2.5189 -9.54166e-015 3.18055e-015 -3.18055e-015 0.8272 -3.3923 0.5977 -3.18055e-015 3.18055e-015 -6.36111e-015 0.565 -2.3158 0.4082 -3.18055e-015 3.18055e-015 -3.18055e-015 -0.916 -9.2044 0.2193 -9.54166e-015 3.18055e-015 -3.18055e-015 -0.0117 -4.1944 -0.0248 0.0129546 0.00230984 -8.60504e-005 -0.0071 -2.3249 -0.0142 -2.47179e-030 -2.22639e-014 -6.36111e-015 -0.6113 -8.7231 -2.0637 -9.54166e-015 3.18055e-015 -3.18055e-015 0.1927 -3.8059 -0.2383 0.0163201 0.00303293 -0.000881109 0.1091 -2.1688 -0.1362 -3.18055e-015 -3.18055e-015 -0 0.6151 -8.0947 -3.564 -9.54166e-015 3.18055e-015 -3.18055e-015 0.4882 -2.341 -0.6462 0.0145515 0.0036713 -0.00326092 0.3574 -1.7166 -0.4742 -6.36111e-015 -3.18055e-015 3.18055e-015 1.4199 -1.8761 1.4221 -9.54166e-015 3.18055e-015 -3.18055e-015 1.1472 -3.4929 2.6336 -3.18055e-015 3.18055e-015 -6.36111e-015 0.8229 -2.3 1.6571 -3.18055e-015 3.18055e-015 -3.18055e-015 -9.412 3.9771 -0.7758 -5.37644 -24.0994 -13.5201 -0.7531 -40.938 1.42109e-014 0.77825 32.1674 -0.0771035 0 -40.1986 0 8.84302 -14.977 -4.56221 0 -4.4182 9.239 -1.98785e-015 1.98785e-016 -0 9.4119 3.9773 -0.7758 7.75056 -24.1872 13.7711 0.7532 -40.9383 7.10543e-015 -0.861224 32.111 0.101869 0 -40.1986 -7.10543e-015 -10.98 -15.1295 4.19585 0 -4.4182 9.239 1.21743e-006 -2.10649e-007 -2.72258e-006 
1.39076 64.5931 66.575 -7.8445e-015 -6.72832 180 0 8.7983 -4.7612 -0.185509 4.55717 -0.372966 4.44089e-016 8.0291 0.4195 -0.342781 9.11543 -0.734578 0 9.9351 -2.2114 -0.342781 9.11545 -0.734578 -8.88178e-016 22.3885 -0.4656 0.233683 0.348369 -0.0162576 -0.0001 12.643 3.4389 6.8228e-008 0.23465 -3.30594e-007 2.2603 21.606 7.4023 -5.82179 2.99936 -32.9235 13.5163 -1.1332 -5.0146 29.8687 -8.35782 23.0831 -0.0995 -28.05 -0.2431 -40.5325 -43.3422 -31.0748 0.0679 -23.3996 -0.1402 5.93102 -0.593247 -2.70031 0.7932 -9.06901 2.5189 1.02808e-006 2.99023e-006 2.81406e-006 -0.8272 -3.3923 0.5977 -3.18055e-015 -1.27222e-014 -0 -0.5649 -2.3158 0.4082 -3.18055e-015 -3.18055e-015 9.54166e-015 0.9159 -9.20441 0.2193 1.02808e-006 2.99023e-006 2.81406e-006 0.0117 -4.1944 -0.0248 -0.012818 0.00232629 8.70217e-005 0.0071 -2.3249 -0.0142 -3.18055e-015 3.18055e-015 -0 0.6113 -8.72311 -2.0637 1.02808e-006 2.99023e-006 2.81406e-006 -0.1927 -3.8059 -0.2383 -0.0160402 0.00298868 0.000856036 -0.1091 -2.1688 -0.1362 6.36111e-015 3.18055e-015 6.36111e-015 -0.6151 -8.09471 -3.5641 1.02808e-006 2.99023e-006 2.81406e-006 -0.4882 -2.341 -0.6462 -0.0125893 0.00312421 0.00283163 -0.3575 -1.7167 -0.4742 9.54166e-015 6.36111e-015 -3.18055e-015 -1.42 -1.8761 1.4223 1.02808e-006 2.99023e-006 2.81406e-006 -1.1471 -3.4929 2.6334 -3.18055e-015 -1.27222e-014 -0 -0.823 -2.3 1.6571 -3.18055e-015 -3.18055e-015 9.54166e-015 -2.2603 21.606 7.4023 7.08478 3.07585 29.5284 -13.5187 -1.1334 -5.0155 -28.518 -9.73936 -18.2609 0.0994 -28.0499 -0.2431 40.6197 -43.9276 31.066 -0.0679 -23.3996 -0.1402 -8.91597 0.762092 3.25864 -0.7932 -9.0691 2.5189 -6.36111e-015 6.36111e-015 -9.54166e-015 0.8272 -3.3923 0.5977 -6.36111e-015 3.18055e-015 -9.54166e-015 0.565 -2.3158 0.4082 -1.27222e-014 -6.36111e-015 -1.27222e-014 -0.916 -9.2044 0.2193 -6.36111e-015 6.36111e-015 -9.54166e-015 -0.0117 -4.1944 -0.0248 0.0129493 0.0023166 -8.88055e-005 -0.0071 -2.3249 -0.0142 3.18055e-015 0 3.18055e-015 -0.6113 -8.7231 -2.0637 -6.36111e-015 6.36111e-015 -9.54166e-015 0.1927 -3.8059 -0.2383 0.0163126 0.0030289 -0.000867745 0.1091 -2.1688 -0.1362 -3.18055e-015 1.59028e-014 -0 0.6151 -8.0947 -3.564 -6.36111e-015 6.36111e-015 -9.54166e-015 0.4882 -2.341 -0.6462 0.0145473 0.00366329 -0.00325823 0.3574 -1.7166 -0.4742 -3.18055e-015 -6.36111e-015 3.18055e-015 1.4199 -1.8761 1.4221 -6.36111e-015 6.36111e-015 -9.54166e-015 1.1472 -3.4929 2.6336 -6.36111e-015 3.18055e-015 -9.54166e-015 0.8229 -2.3 1.6571 -1.27222e-014 -6.36111e-015 -1.27222e-014 -9.412 3.9771 -0.7758 -5.08263 -22.5234 -12.8693 -0.7531 -40.938 0 0.831789 31.7747 -0.0878249 -3.55271e-015 -40.1986 0 8.83402 -15.0105 -5.0291 0 -4.4182 9.239 1.64807e-006 1.18203e-007 -1.58184e-006 9.4119 3.9773 -0.7758 7.57457 -22.5951 13.3765 0.7532 -40.9383 7.10543e-015 -0.927167 31.7205 0.124189 0 -40.1986 7.10543e-015 -10.9766 -15.1206 4.19018 0 -4.4182 9.239 -6.82174e-008 2.48027e-007 -1.61615e-006 
1.38975 64.6534 66.2623 -7.6868e-015 -5.45517 180 0 8.7983 -4.7612 -0.186248 4.71217 -0.372947 0 8.0291 0.4195 -0.343347 9.42545 -0.734208 0 9.9351 -2.2114 -0.343348 9.42547 -0.73421 0 22.3885 -0.4656 0.350293 0.523789 -0.0327098 -0.0001 12.643 3.4389 1.85056e-007 0.352154 1.05131e-007 2.2603 21.606 7.4023 -6.03025 2.7124 -33.2496 13.5163 -1.1332 -5.0146 30.1014 -8.50009 23.195 -0.0995 -28.05 -0.2431 -39.4859 -42.8836 -30.3532 0.0679 -23.3996 -0.1402 5.34552 -0.332017 -2.26285 0.7932 -9.06901 2.5189 -5.09963e-006 3.32256e-006 1.16513e-005 -0.8272 -3.3923 0.5977 -6.36111e-015 -3.18055e-015 6.36111e-015 -0.5649 -2.3158 0.4082 -1.02545e-006 2.98252e-007 -2.81212e-006 0.9159 -9.20441 0.2193 -5.09963e-006 3.32256e-006 1.16513e-005 0.0117 -4.1944 -0.0248 -0.0128018 0.00231406 8.72818e-005 0.0071 -2.3249 -0.0142 -5.44783e-006 4.65887e-006 -5.29708e-006 0.6113 -8.72311 -2.0637 -5.09963e-006 3.32256e-006 1.16513e-005 -0.1927 -3.8059 -0.2383 -0.0160464 0.00299226 0.000851475 -0.1091 -2.1688 -0.1362 -9.24863e-006 2.74015e-007 5.2582e-006 -0.6151 -8.09471 -3.5641 -5.09963e-006 3.32256e-006 1.16513e-005 -0.4882 -2.341 -0.6462 -0.0125711 0.0031129 0.00282342 -0.3575 -1.7167 -0.4742 -7.06225e-031 -6.36111e-015 -6.36111e-015 -1.42 -1.8761 1.4223 -5.09963e-006 3.32256e-006 1.16513e-005 -1.1471 -3.4929 2.6334 -6.36111e-015 -3.18055e-015 6.36111e-015 -0.823 -2.3 1.6571 -1.02545e-006 2.98252e-007 -2.81212e-006 -2.2603 21.606 7.4023 7.2793 2.77964 29.8389 -13.5187 -1.1334 -5.0155 -28.7026 -9.91371 -18.37 0.0994 -28.0499 -0.2431 39.6175 -43.4913 30.3699 -0.0679 -23.3996 -0.1402 -8.35965 1.10958 2.87671 -0.7932 -9.0691 2.5189 6.36111e-015 0 -0 0.8272 -3.3923 0.5977 -5.07492e-006 5.53622e-006 -7.89646e-006 0.565 -2.3158 0.4082 2.19853e-006 1.4652e-007 4.20727e-006 -0.916 -9.2044 0.2193 6.36111e-015 0 -0 -0.0117 -4.1944 -0.0248 0.0129474 0.00232076 -0.000102392 -0.0071 -2.3249 -0.0142 3.18055e-015 -3.18055e-015 -0 -0.6113 -8.7231 -2.0637 6.36111e-015 0 -0 0.1927 -3.8059 -0.2383 0.0163867 0.00304883 -0.000889751 0.1091 -2.1688 -0.1362 6.7788e-007 4.06906e-006 -5.18041e-007 0.6151 -8.0947 -3.564 6.36111e-015 0 -0 0.4882 -2.341 -0.6462 0.0145929 0.00368675 -0.0032723 0.3574 -1.7166 -0.4742 6.77887e-007 2.59013e-006 -5.18032e-007 1.4199 -1.8761 1.4221 6.36111e-015 0 -0 1.1472 -3.4929 2.6336 -5.07492e-006 5.53622e-006 -7.89646e-006 0.8229 -2.3 1.6571 2.19853e-006 1.4652e-007 4.20727e-006 -9.412 3.9771 -0.7758 -4.8093 -20.9411 -12.2317 -0.7531 -40.938 0 0.883432 31.3839 -0.0977394 0 -40.1986 0 8.82517 -15.0438 -5.49625 0 -4.4182 9.239 -1.98785e-016 -2.25236e-007 -0 9.4119 3.9773 -0.7758 7.41119 -20.9954 12.9901 0.7532 -40.9383 0 -0.992059 31.3283 0.145381 -3.55271e-015 -40.1986 0 -10.9737 -15.1115 4.18455 0 -4.4182 9.239 5.96354e-016 -3.97569e-016 9.54166e-015 
